<svg data-v-0dd9719b="" version="1.0" xmlns="http://www.w3.org/2000/svg" xmlns:xlink="http://www.w3.org/1999/xlink" width="100%" height="100%" viewBox="0 0 340.000000 250.000000" preserveAspectRatio="xMidYMid meet" color-interpolation-filters="sRGB" style="margin: auto;"> <rect data-v-0dd9719b="" x="0" y="0" width="100%" height="100%" fill-opacity="0" class="background"></rect> <!----> <g data-v-0dd9719b="" class="iconmbgsvg" transform="translate(110.08000183105469,88.96736145019531)"><g fill="#f30d8b" hollow-target="text"><g mask="url(#64ad63a6-312f-46f4-8934-c9c624d15a04)"><g><rect fill="#f30d8b" fill-opacity="0" stroke-width="2" x="0" y="0" width="97.5" height="72.06528005676526" class="image-rect"></rect> <svg filter="url(#colors6482277081)" x="0" y="0" width="97.5" height="72.06528005676526" filtersec="colorsf9608915840" class="image-svg-svg primary" style="overflow: visible;"><svg xmlns="http://www.w3.org/2000/svg" viewBox="0 0 46 34"><g><path d="M39 34H7a7 7 0 0 1-7-7V7a7 7 0 0 1 7-7h32a7 7 0 0 1 7 7v20a7 7 0 0 1-7 7z"></path></g></svg></svg> <defs><filter id="colors6482277081"><feColorMatrix type="matrix" values="0 0 0 0 0.94921875  0 0 0 0 0.05078125  0 0 0 0 0.54296875  0 0 0 1 0" class="icon-fecolormatrix"></feColorMatrix></filter> <filter id="colorsf9608915840"><feColorMatrix type="matrix" values="0 0 0 0 0.99609375  0 0 0 0 0.99609375  0 0 0 0 0.99609375  0 0 0 1 0" class="icon-fecolormatrix"></feColorMatrix></filter> <filter id="colorsb157138500"><feColorMatrix type="matrix" values="0 0 0 0 0  0 0 0 0 0  0 0 0 0 0  0 0 0 1 0" class="icon-fecolormatrix"></feColorMatrix></filter></defs></g></g> <g transform="translate(49.65999984741211,19.827638626098633)"><g data-gra="path-name" fill-rule="" class="tp-name"><g transform="scale(1)"><g><path d="M13.62-13.67L13.62 0 3.93 0 3.93-36.41 25.45-36.41 25.45-28.51 13.62-28.51 13.62-21.57 24.53-21.57 24.53-13.67 13.62-13.67ZM41.31 0L31.43 0 31.43-36.41 41.31-36.41 41.31 0ZM65.24-28.36L65.24 0 55.41 0 55.41-28.36 46.52-28.36 46.52-36.41 74.11-36.41 74.11-28.36 65.24-28.36Z" transform="translate(-3.930000066757202, 36.40999984741211)"></path></g> <!----> <!----> <!----> <!----> <!----> <!----> <!----></g></g> <!----></g></g></g><mask id="64ad63a6-312f-46f4-8934-c9c624d15a04"><g fill="white"><g><rect fill-opacity="1" stroke-width="2" x="0" y="0" width="97.5" height="72.06528005676526" class="image-rect"></rect> <svg x="0" y="0" width="97.5" height="72.06528005676526" class="image-svg-svg primary" style="overflow: visible;" filter="url(#colorsf9608915840)"><svg xmlns="http://www.w3.org/2000/svg" viewBox="0 0 46 34"><g><path d="M39 34H7a7 7 0 0 1-7-7V7a7 7 0 0 1 7-7h32a7 7 0 0 1 7 7v20a7 7 0 0 1-7 7z"></path></g></svg></svg> <defs>  </defs></g></g> <g transform="translate(49.65999984741211,19.827638626098633)" fill="black" stroke="black" stroke-width="6" stroke-linejoin="round"><g data-gra="path-name" fill-rule="" class="tp-name"><g transform="scale(1)"><g><path d="M13.62-13.67L13.62 0 3.93 0 3.93-36.41 25.45-36.41 25.45-28.51 13.62-28.51 13.62-21.57 24.53-21.57 24.53-13.67 13.62-13.67ZM41.31 0L31.43 0 31.43-36.41 41.31-36.41 41.31 0ZM65.24-28.36L65.24 0 55.41 0 55.41-28.36 46.52-28.36 46.52-36.41 74.11-36.41 74.11-28.36 65.24-28.36Z" transform="translate(-3.930000066757202, 36.40999984741211)"></path></g>       </g></g> </g></mask><defs v-gra="od"></defs></svg>